<svg width="17" height="16" viewBox="0 0 17 16" fill="none" xmlns="http://www.w3.org/2000/svg">
<path d="M8.5 0C3.81696 0 0 3.06582 0 6.8273C0 10.5888 3.81696 13.6546 8.5 13.6546V16L9.95356 15.2518C12.0652 14.1639 15.9158 11.8153 16.81 8.25558C16.9324 7.79644 17 7.31868 17 6.8273C17 3.06582 13.183 0 8.5 0ZM8.5 1.51718C12.1621 1.51718 15.1111 3.88588 15.1111 6.8273C15.1111 7.20977 15.0588 7.58239 14.9617 7.94444L14.9599 7.95037L14.958 7.95481C14.3969 10.1912 12.251 11.8379 10.3889 13.0012V11.9848L9.32639 12.0915C9.04216 12.12 8.76816 12.1374 8.5 12.1374C4.83793 12.1374 1.88889 9.76871 1.88889 6.8273C1.88889 3.88588 4.83793 1.51718 8.5 1.51718Z" />
</svg>
