<svg width="18" height="16" viewBox="0 0 18 16" fill="none" xmlns="http://www.w3.org/2000/svg">
<path d="M13.05 0C11.484 0 9.981 0.706267 9 1.82234C8.019 0.706267 6.516 0 4.95 0C2.178 0 0 2.11008 0 4.79564C0 8.09155 3.06 10.7771 7.695 14.8578L9 16L10.305 14.849C14.94 10.7771 18 8.09155 18 4.79564C18 2.11008 15.822 0 13.05 0ZM9.09 13.7846L9 13.9077L8.91 13.7846C4.626 10.0266 1.8 7.44297 1.8 4.92308C1.8 3.17921 3 1.84615 4.8 1.84615C6.186 1.84615 7.623 2.37468 8.1 3.56923H9.9C10.368 2.37468 11.814 1.84615 13.2 1.84615C15 1.84615 16.2 3.05177 16.2 4.79564C16.2 7.31553 13.374 10.0266 9.09 13.7846Z" />
</svg>
