<svg width="20" height="20" viewBox="0 0 20 20" fill="none" xmlns="http://www.w3.org/2000/svg">
<path d="M7.67928 0.0317688C7.19491 0.148956 6.73787 0.555206 6.57772 1.00833C6.54256 1.09818 6.46834 1.47318 6.40584 1.84427C6.2535 2.74271 6.11678 3.00052 5.66756 3.21927C5.48787 3.30521 5.39803 3.32474 5.17147 3.32474C4.93319 3.32083 4.81991 3.28958 4.2535 3.07083C3.61287 2.82474 3.60897 2.82474 3.19881 2.82083C2.81991 2.82083 2.76913 2.82864 2.53475 2.94193C2.39413 3.00833 2.20272 3.14114 2.10506 3.24271C1.89803 3.45364 0.179281 6.39505 0.0620939 6.74661C-0.0394686 7.04349 -0.0121248 7.51614 0.120688 7.80911C0.265219 8.1138 0.405844 8.27005 0.960531 8.72318C1.23397 8.94974 1.49959 9.18802 1.55038 9.24661C1.88631 9.67239 1.89413 10.2935 1.56209 10.7154C1.51913 10.7701 1.24959 11.0083 0.964438 11.2466C0.398031 11.7115 0.273031 11.8521 0.124594 12.1685C-0.0121248 12.4615 -0.0394686 12.9341 0.0581877 13.231C0.101156 13.3482 0.53475 14.1451 1.03084 15.0005C2.00741 16.6958 2.10506 16.8286 2.53475 17.0357C2.76913 17.149 2.81991 17.1568 3.19881 17.1568C3.60897 17.1529 3.61287 17.1529 4.2535 16.9068C4.81991 16.688 4.93319 16.6568 5.17147 16.6529C5.6285 16.649 5.99569 16.8794 6.21053 17.3013C6.26131 17.399 6.33553 17.7232 6.40584 18.1333C6.53084 18.8872 6.58162 19.0552 6.74959 19.3013C6.91366 19.5396 7.12069 19.7076 7.41756 19.8482L7.67147 19.9693L9.56209 19.981C10.7574 19.9888 11.523 19.9771 11.6441 19.9536C12.1168 19.8521 12.4957 19.5552 12.7105 19.1177C12.8199 18.8872 12.8668 18.7115 12.9605 18.149C13.0855 17.3833 13.1715 17.1568 13.4176 16.9419C13.6519 16.7388 13.8785 16.6529 14.1949 16.6568C14.4371 16.6568 14.5465 16.688 15.1129 16.9068C15.7535 17.1529 15.7574 17.1529 16.1676 17.1568C16.5465 17.1568 16.5972 17.149 16.8316 17.0357C17.2574 16.8286 17.359 16.6919 18.3277 15.0201C18.8121 14.1763 19.2418 13.4146 19.2808 13.3286C19.3316 13.2154 19.3472 13.0669 19.3512 12.7818C19.3512 12.4419 19.3394 12.3638 19.2496 12.1763C19.0972 11.8599 18.9683 11.7154 18.3902 11.2388C17.8316 10.774 17.6871 10.5982 17.5933 10.2896C17.5191 10.0435 17.5191 9.93411 17.5933 9.68802C17.6871 9.37552 17.8394 9.19193 18.3902 8.7388C18.9605 8.27005 19.0972 8.11771 19.2496 7.8013C19.3394 7.6138 19.3512 7.53568 19.3512 7.19583C19.3472 6.91068 19.3316 6.76224 19.2808 6.64896C19.2418 6.56302 18.8121 5.8013 18.3277 4.95755C17.359 3.28568 17.2574 3.14896 16.8316 2.94193C16.5972 2.82864 16.5465 2.82083 16.1676 2.82083C15.7574 2.82474 15.7535 2.82474 15.1129 3.07083C14.5465 3.28958 14.4332 3.32083 14.1949 3.32474C13.7379 3.32864 13.3707 3.09818 13.1558 2.6763C13.109 2.58255 13.0308 2.25443 12.9605 1.85208C12.9019 1.48489 12.8199 1.10208 12.7808 0.996613C12.648 0.621613 12.2769 0.250519 11.8824 0.0864563C11.7066 0.0122375 11.5855 0.0083313 9.76131 0.000518799C8.69881 -0.00338745 7.76131 0.0122375 7.67928 0.0317688ZM11.3238 1.55911C11.3238 1.56693 11.3746 1.87161 11.441 2.24271C11.609 3.21146 11.8004 3.63333 12.2965 4.1138C12.8472 4.65286 13.648 4.94974 14.3707 4.89114C14.7496 4.85989 14.8551 4.83255 15.5738 4.57083C15.9019 4.44974 16.1754 4.35989 16.1793 4.36771C16.1871 4.37552 16.5582 5.01614 17.0035 5.78568C17.648 6.90677 17.8004 7.19974 17.7613 7.23489C17.734 7.25833 17.5113 7.44193 17.273 7.64114C16.7105 8.10208 16.484 8.35989 16.2887 8.75443C16.0699 9.18802 15.9996 9.49271 15.9996 9.9888C15.9996 10.4849 16.0699 10.7896 16.2887 11.2232C16.484 11.6177 16.7105 11.8755 17.273 12.3365C17.5113 12.5357 17.734 12.7193 17.7613 12.7427C17.8004 12.7779 17.6441 13.0747 17.0035 14.1919C16.5582 14.9615 16.1871 15.6021 16.1793 15.6099C16.1754 15.6177 15.9019 15.5279 15.5738 15.4068C14.8551 15.1451 14.7496 15.1177 14.3707 15.0865C13.648 15.0279 12.8433 15.3286 12.2926 15.8599C11.8043 16.3404 11.6051 16.7701 11.441 17.7349C11.3746 18.106 11.3238 18.4107 11.3238 18.4146C11.3238 18.4224 10.5855 18.4263 9.68319 18.4263C8.78084 18.4263 8.04256 18.4224 8.04256 18.4146C8.04256 18.4107 7.99178 18.106 7.92537 17.7349C7.76131 16.7701 7.56991 16.356 7.07772 15.8677C6.53084 15.3286 5.72225 15.0279 4.99569 15.0865C4.61678 15.1177 4.51131 15.1451 3.79256 15.4068C3.46444 15.5279 3.191 15.6177 3.18709 15.6099C3.066 15.4576 1.566 12.7818 1.58553 12.7622C1.60116 12.7466 1.82772 12.5591 2.08553 12.3443C2.63241 11.8911 2.83944 11.6685 3.03475 11.3169C3.26913 10.899 3.36288 10.5122 3.36288 9.9888C3.36288 9.46536 3.26913 9.07864 3.03475 8.66068C2.83944 8.30911 2.63241 8.08646 2.08553 7.63333C1.82772 7.41849 1.60116 7.23099 1.58553 7.21536C1.566 7.19583 3.066 4.52005 3.18709 4.36771C3.191 4.35989 3.46444 4.44974 3.79256 4.57083C4.60116 4.86771 4.67928 4.88333 5.15194 4.88724C5.64022 4.88724 5.941 4.81693 6.38241 4.59818C6.73787 4.42239 7.00741 4.21536 7.26912 3.90677C7.62459 3.48489 7.79256 3.06302 7.92537 2.25443C7.96834 1.98489 8.01522 1.71927 8.02694 1.65677L8.05037 1.5513H9.68709C10.5855 1.5513 11.3238 1.55521 11.3238 1.55911Z" />
<path d="M9.19531 6.16479C8.64844 6.2351 8.00781 6.4812 7.5 6.81713C7.21484 7.00463 6.69531 7.52807 6.5 7.82104C5.60938 9.1726 5.60938 10.8054 6.5 12.157C6.69531 12.4499 7.21484 12.9734 7.5 13.1609C8.98828 14.1414 10.8125 14.0554 12.1523 12.9421C13.3281 11.9695 13.8203 10.321 13.3672 8.87573C12.9336 7.4851 11.793 6.46167 10.3945 6.19995C10.0742 6.14135 9.49609 6.12182 9.19531 6.16479ZM10.3672 7.80542C11.0508 8.01635 11.6523 8.62182 11.8789 9.32495C11.9922 9.68042 11.9922 10.2976 11.8789 10.6531C11.6484 11.364 11.0586 11.9539 10.3477 12.1804C9.98828 12.2976 9.41016 12.2976 9.03906 12.1843C8.31641 11.9617 7.71875 11.3718 7.48828 10.6531C7.375 10.2976 7.375 9.68042 7.49219 9.32495C7.76172 8.47729 8.54297 7.82104 9.41016 7.71167C9.64062 7.68042 10.1211 7.72729 10.3672 7.80542Z" />
</svg>
