<svg width="10" height="20" viewBox="0 0 10 20" fill="none" xmlns="http://www.w3.org/2000/svg">
<path d="M8.63636 4.54545V15C8.63636 17.0091 7.00909 18.6364 5 18.6364C2.99091 18.6364 1.36364 17.0091 1.36364 15V3.63636C1.36364 2.38182 2.38182 1.36364 3.63636 1.36364C4.89091 1.36364 5.90909 2.38182 5.90909 3.63636V13.1818C5.90909 13.6818 5.5 14.0909 5 14.0909C4.5 14.0909 4.09091 13.6818 4.09091 13.1818V4.54545H2.72727V13.1818C2.72727 14.4364 3.74545 15.4545 5 15.4545C6.25455 15.4545 7.27273 14.4364 7.27273 13.1818V3.63636C7.27273 1.62727 5.64545 0 3.63636 0C1.62727 0 0 1.62727 0 3.63636V15C0 17.7636 2.23636 20 5 20C7.76364 20 10 17.7636 10 15V4.54545H8.63636Z" fill="black"/>
</svg>
