<svg width="15" height="13" viewBox="0 0 15 13" fill="none" xmlns="http://www.w3.org/2000/svg">
<path d="M10.875 0C9.57 0 8.3175 0.573842 7.5 1.48065C6.6825 0.573842 5.43 0 4.125 0C1.815 0 0 1.71444 0 3.89646C0 6.57439 2.55 8.7564 6.4125 12.0719L7.5 13L8.5875 12.0649C12.45 8.7564 15 6.57439 15 3.89646C15 1.71444 13.185 0 10.875 0ZM7.575 11.2L7.5 11.3L7.425 11.2C3.855 8.14659 1.5 6.04741 1.5 4C1.5 2.58311 2.5 1.5 4 1.5C5.155 1.5 6.3525 1.92943 6.75 2.9H8.25C8.64 1.92943 9.845 1.5 11 1.5C12.5 1.5 13.5 2.47956 13.5 3.89646C13.5 5.94387 11.145 8.14659 7.575 11.2Z"/>
</svg>
